<svg xmlns="http://www.w3.org/2000/svg" width="25.957" height="27.002" viewBox="0 0 25.957 27.002">
  <g id="Calendar" transform="translate(-1.25 -1.3)">
    <g id="Path_198277" data-name="Path 198277" transform="translate(0 0.345)" fill="#25cad2" stroke-linecap="round" stroke-linejoin="round" fill-rule="evenodd">
      <path d="M 14.2275857925415 27.20707702636719 C 5.199565887451172 27.20707702636719 1.999755620956421 24.00728607177734 1.999755620956421 14.97929573059082 C 1.999755620956421 5.951266288757324 5.199565887451172 2.751456260681152 14.2275857925415 2.751456260681152 C 23.25649642944336 2.751456260681152 26.45661544799805 5.951266288757324 26.45661544799805 14.97929573059082 C 26.45661544799805 24.00728607177734 23.25649642944336 27.20707702636719 14.2275857925415 27.20707702636719 Z" stroke="none"/>
      <path d="M 14.2275857925415 26.45707702636719 C 22.83654594421387 26.45707702636719 25.70661544799805 23.5882453918457 25.70661544799805 14.97929573059082 C 25.70661544799805 6.370296001434326 22.83654594421387 3.501456260681152 14.2275857925415 3.501456260681152 C 5.619825839996338 3.501456260681152 2.749755620956421 6.370296001434326 2.749755620956421 14.97929573059082 C 2.749755620956421 23.5882453918457 5.619825839996338 26.45707702636719 14.2275857925415 26.45707702636719 M 14.2275857925415 27.95707702636719 C 9.332975387573242 27.95707702636719 6.240395545959473 27.04731559753418 4.200145721435547 25.00724601745605 C 2.159685611724854 22.96697616577148 1.249755620956421 19.87424659729004 1.249755620956421 14.97929573059082 C 1.249755620956421 10.08432579040527 2.159685611724854 6.991576194763184 4.200145721435547 4.951296329498291 C 6.240395545959473 2.911216259002686 9.332965850830078 2.001456260681152 14.2275857925415 2.001456260681152 C 19.12275505065918 2.001456260681152 22.21564483642578 2.911206245422363 24.25603485107422 4.951256275177002 C 26.2966251373291 6.991496086120605 27.20661544799805 10.08425617218018 27.20661544799805 14.97929573059082 C 27.20661544799805 19.87430572509766 26.2966251373291 22.96705627441406 24.25602531433105 25.00729560852051 C 22.21563529968262 27.04732704162598 19.12275505065918 27.95707702636719 14.2275857925415 27.95707702636719 Z" stroke="none" fill="#d3f5f6"/>
    </g>
    <path id="Path_198278" data-name="Path 198278" d="M3.025,9.324H25.312" transform="translate(0.065 1.729)" fill="#25cad2" stroke="#d3f5f6" stroke-linecap="round" stroke-linejoin="round" stroke-width="1.5"/>
    <path id="Path_198279" data-name="Path 198279" d="M16.428,13.261h.011" transform="translate(3.25 2.664)" fill="#25cad2" stroke="#d3f5f6" stroke-linecap="round" stroke-linejoin="round" stroke-width="1.5"/>
    <path id="Path_198280" data-name="Path 198280" d="M12.029,13.261h.011" transform="translate(2.205 2.664)" fill="#25cad2" stroke="#d3f5f6" stroke-linecap="round" stroke-linejoin="round" stroke-width="1.5"/>
    <path id="Path_198281" data-name="Path 198281" d="M7.621,13.261h.011" transform="translate(1.158 2.664)" fill="#25cad2" stroke="#d3f5f6" stroke-linecap="round" stroke-linejoin="round" stroke-width="1.5"/>
    <path id="Path_198282" data-name="Path 198282" d="M16.428,17.113h.011" transform="translate(3.25 3.579)" fill="#25cad2" stroke="#d3f5f6" stroke-linecap="round" stroke-linejoin="round" stroke-width="1.5"/>
    <path id="Path_198283" data-name="Path 198283" d="M12.029,17.113h.011" transform="translate(2.205 3.579)" fill="#25cad2" stroke="#d3f5f6" stroke-linecap="round" stroke-linejoin="round" stroke-width="1.5"/>
    <path id="Path_198284" data-name="Path 198284" d="M7.621,17.113h.011" transform="translate(1.158 3.579)" fill="#25cad2" stroke="#d3f5f6" stroke-linecap="round" stroke-linejoin="round" stroke-width="1.5"/>
    <path id="Path_198285" data-name="Path 198285" d="M16.033,2.05V6.087" transform="translate(3.156)" fill="#25cad2" stroke="#d3f5f6" stroke-linecap="round" stroke-linejoin="round" stroke-width="1.5"/>
    <path id="Path_198286" data-name="Path 198286" d="M8.025,2.05V6.087" transform="translate(1.253)" fill="#25cad2" stroke="#d3f5f6" stroke-linecap="round" stroke-linejoin="round" stroke-width="1.5"/>
  </g>
</svg>
