<svg xmlns="http://www.w3.org/2000/svg" width="14.596" height="14.204" viewBox="0 0 14.596 14.204">
  <g id="Camera" transform="translate(0.75 0.976)">
    <path id="Path_198765" data-name="Path 198765" d="M13.723,11.64a2.287,2.287,0,1,0-2.287,2.287A2.288,2.288,0,0,0,13.723,11.64Z" transform="translate(-4.887 -4.763)" fill="none" stroke="#fff" stroke-linecap="round" stroke-linejoin="round" stroke-width="1.5" fill-rule="evenodd"/>
    <path id="Path_198766" data-name="Path 198766" d="M9.837,15.521c5.851,0,6.548-1.753,6.548-5.552,0-2.663-.352-4.087-2.57-4.7a1.4,1.4,0,0,1-.612-.388c-.3-.324-.511-1.318-1.225-1.619a10.527,10.527,0,0,0-4.281,0c-.7.287-.929,1.3-1.225,1.619a1.4,1.4,0,0,1-.612.388c-2.218.612-2.57,2.037-2.57,4.7C3.289,13.768,3.986,15.521,9.837,15.521Z" transform="translate(-3.289 -3.042)" fill="none" stroke="#fff" stroke-linecap="round" stroke-linejoin="round" stroke-width="1.5" fill-rule="evenodd"/>
    <path id="Path_198767" data-name="Path 198767" d="M17.2,9h.007" transform="translate(-7.084 -4.667)" fill="none" stroke="#fff" stroke-linecap="round" stroke-linejoin="round" stroke-width="1.5"/>
  </g>
</svg>
