<svg xmlns="http://www.w3.org/2000/svg" width="29.822" height="23.647" viewBox="0 0 29.822 23.647">
  <g id="camera_rotate" data-name="camera rotate" transform="translate(-1.998 -6.085)">
    <path id="Path_198298" data-name="Path 198298" d="M12.839,14.168a2.547,2.547,0,1,0-2.547-2.547A2.55,2.55,0,0,0,12.839,14.168Z" transform="translate(4.072 1.468)" fill="#a8a8a8"/>
    <path id="Path_198299" data-name="Path 198299" d="M11.179,20.1H22.641A5.1,5.1,0,0,0,27.736,15V11.18a5.1,5.1,0,0,0-5.095-5.095H11.179A5.1,5.1,0,0,0,6.085,11.18V15A5.1,5.1,0,0,0,11.179,20.1ZM16.911,8a5.095,5.095,0,1,1-5.095,5.095A5.1,5.1,0,0,1,16.911,8Zm13.42,15.151H22.11a1.491,1.491,0,1,0,0,2.982h2.161a40.638,40.638,0,0,1-7.361.62c-6.895,0-11.287-1.418-11.934-2.252A1.493,1.493,0,0,0,2,24.638c0,4.95,13.385,5.093,14.911,5.093s14.911-.143,14.911-5.093a1.491,1.491,0,0,0-1.491-1.491Z" transform="translate(0 0)" fill="#a8a8a8"/>
  </g>
</svg>
