<svg xmlns="http://www.w3.org/2000/svg" width="24.52" height="24.52" viewBox="0 0 24.52 24.52">
  <g id="code" transform="translate(0.25 0.25)">
    <g id="Group_203548" data-name="Group 203548">
      <path id="Path_198254" data-name="Path 198254" d="M2,2H12.882V12.882H2ZM4.521,4.521v5.84h5.84V4.521ZM2,15.138H12.882V26.02H2Zm2.521,2.521V23.5h5.84V17.658ZM15.138,2H26.02V12.882H15.136Zm2.521,2.521v5.84H23.5V4.521Z" transform="translate(-2 -2)" fill="#f4b73b" stroke="#f4b73b" stroke-width="0.5" fill-rule="evenodd"/>
      <path id="Path_198255" data-name="Path 198255" d="M7.658,7.733H5.368V5.316h2.29Zm0,12.593H5.368V17.909h2.29Zm16.6,4.007h-2.29V21.916h2.29Zm-4.007,0H17.962V21.916h2.29Zm0-16.6H17.962V5.316h2.29Z" transform="translate(-0.302 -0.312)" fill="#f4b73b" stroke="#f4b73b" stroke-width="0.5" fill-rule="evenodd"/>
      <path id="Path_198256" data-name="Path 198256" d="M12.421,12.421h6.424v3.434h1.59V12.484h2.417v5.788H16.428V14.838H14.837v7.95H12.42Z" transform="translate(1.168 1.168)" fill="#f4b73b" stroke="#f4b73b" stroke-width="0.5" fill-rule="evenodd"/>
    </g>
  </g>
</svg>
