<svg xmlns="http://www.w3.org/2000/svg" width="25.146" height="25.146" viewBox="0 0 25.146 25.146">
  <g id="code" transform="translate(-1.75 -1.75)">
    <g id="Group_203548" data-name="Group 203548" transform="translate(2 2)">
      <path id="Path_198254" data-name="Path 198254" d="M2,2H13.166V13.166H2ZM4.587,4.587v5.992h5.992V4.587ZM2,15.48H13.166V26.646H2Zm2.587,2.587v5.992h5.992V18.066ZM15.48,2H26.646V13.166H15.479Zm2.587,2.587v5.992h5.992V4.587Z" transform="translate(-2 -2)" fill="#fff" stroke="#fff" stroke-width="0.5" fill-rule="evenodd"/>
      <path id="Path_198255" data-name="Path 198255" d="M7.819,7.9H5.368V5.316H7.819Zm0,13.48H5.368V18.8H7.819Zm17.77,4.289H23.138V23.086h2.451Zm-4.289,0H18.85V23.086H21.3Zm0-17.77H18.85V5.316H21.3Z" transform="translate(-1.011 -1.027)" fill="#fff" stroke="#fff" stroke-width="0.5" fill-rule="evenodd"/>
      <path id="Path_198256" data-name="Path 198256" d="M12.421,12.421H19.3V16.1H21V12.488h2.587v6.2H16.711V15.008h-1.7v8.51H12.42Z" transform="translate(1.059 1.059)" fill="#fff" stroke="#fff" stroke-width="0.5" fill-rule="evenodd"/>
    </g>
  </g>
</svg>
