<svg xmlns="http://www.w3.org/2000/svg" width="16.133" height="16.133" viewBox="0 0 16.133 16.133">
  <g id="delete" transform="translate(-2 -2)">
    <path id="Path_198326" data-name="Path 198326" d="M17.327,4.42H2.807a.807.807,0,0,0,0,1.613H4.42v9.68a2.42,2.42,0,0,0,2.42,2.42h6.453a2.42,2.42,0,0,0,2.42-2.42V6.033h1.613a.807.807,0,1,0,0-1.613ZM9.26,13.293a.807.807,0,0,1-1.613,0V9.26a.807.807,0,0,1,1.613,0Zm3.227,0a.807.807,0,0,1-1.613,0V9.26a.807.807,0,0,1,1.613,0ZM8.453,3.613H11.68A.807.807,0,0,0,11.68,2H8.453a.807.807,0,1,0,0,1.613Z" fill="#e3e3e3"/>
  </g>
</svg>
