<svg id="end_call" data-name="end call" xmlns="http://www.w3.org/2000/svg" width="31.404" height="12.137" viewBox="0 0 31.404 12.137">
  <path id="Path_198300" data-name="Path 198300" d="M14.187,65.78C-2.046,66.092-.107,74.129.265,75.309c.4,2.005,1.934,3.008,3.493,2.44l2.966-.928c1.6-.583,2.611-2.757,2.263-4.857l-.066-.4a24.969,24.969,0,0,1,13.671-.124l-.029.17c-.347,2.1.665,4.274,2.264,4.857L27.792,77.7c1.34.489,2.663-.453,3.261-1.957l.012.011a4.222,4.222,0,0,0,.165-.549c.007-.027.012-.057.019-.083.014-.063.028-.129.041-.2.008-.04.018-.079.025-.119l0,0c.433-2.558-.015-9.349-17.127-9.023Z" transform="translate(0 -65.769)" fill="#fff"/>
</svg>
