<svg xmlns="http://www.w3.org/2000/svg" width="24.543" height="24.926" viewBox="0 0 24.543 24.926">
  <g id="end_call" data-name="end call" transform="matrix(-0.695, -0.719, 0.719, -0.695, 17.527, 24.926)">
    <path id="Path_198300" data-name="Path 198300" d="M11.4.009C-1.643.26-.085,6.717.214,7.665c.32,1.611,1.554,2.417,2.807,1.96L5.4,8.88a3.544,3.544,0,0,0,1.818-3.9l-.053-.319a20.062,20.062,0,0,1,10.984-.1l-.023.136a3.545,3.545,0,0,0,1.819,3.9l2.383.993c1.077.393,2.14-.364,2.62-1.573l.01.009a3.393,3.393,0,0,0,.132-.441c.005-.022.009-.045.015-.067.011-.051.022-.1.033-.161.007-.032.014-.063.02-.1l0,0C25.508,5.2,25.148-.254,11.4.009Z" transform="translate(0 0)" fill="#25cad2"/>
  </g>
</svg>
