<svg xmlns="http://www.w3.org/2000/svg" width="21.141" height="21.47" viewBox="0 0 21.141 21.47">
  <g id="end_call" data-name="end call" transform="matrix(-0.695, -0.719, 0.719, -0.695, 15.098, 21.47)">
    <path id="Path_198300" data-name="Path 198300" d="M9.819.008C-1.415.224-.074,5.786.184,6.6.46,7.99,1.523,8.685,2.6,8.291l2.052-.642A3.053,3.053,0,0,0,6.22,4.287l-.046-.275a17.281,17.281,0,0,1,9.462-.086l-.02.117A3.054,3.054,0,0,0,17.183,7.4l2.052.856a1.861,1.861,0,0,0,2.257-1.355l.009.007a2.922,2.922,0,0,0,.114-.38c0-.019.008-.039.013-.058.01-.044.019-.089.029-.139.006-.028.012-.054.018-.083l0,0c.3-1.771-.01-6.47-11.853-6.244Z" transform="translate(0 0)" fill="#f4b73b"/>
  </g>
</svg>
