<svg id="file_1_" data-name="file (1)" xmlns="http://www.w3.org/2000/svg" width="20.336" height="23.635" viewBox="0 0 20.336 23.635">
  <g id="Layer_2" data-name="Layer 2">
    <path id="Path_198755" data-name="Path 198755" d="M7.347,7.79A1.374,1.374,0,0,0,8.722,6.416V1.81a2.77,2.77,0,0,0-.451.429L3.742,7.449A3.8,3.8,0,0,0,3.5,7.79Z" transform="translate(-3.005 -1.194)" fill="#25cad2"/>
    <path id="Path_198756" data-name="Path 198756" d="M22.5,2.129a2.957,2.957,0,0,0-2.133-.879H10.415V6.472A3.023,3.023,0,0,1,7.392,9.495H3.05V21.862a3.023,3.023,0,0,0,3.023,3.023H20.364a3.023,3.023,0,0,0,3.023-3.023V4.273a3.012,3.012,0,0,0-.89-2.144ZM13.988,18.289h-4.4a.824.824,0,0,1,0-1.649h4.4a.824.824,0,1,1,0,1.649Zm4.4-4.4H9.591a.824.824,0,0,1,0-1.649h8.794a.824.824,0,0,1,0,1.649Z" transform="translate(-3.05 -1.25)" fill="#25cad2"/>
  </g>
</svg>
