<svg id="file_1_" data-name="file (1)" xmlns="http://www.w3.org/2000/svg" width="20.336" height="23.635" viewBox="0 0 20.336 23.635">
  <g id="Layer_2" data-name="Layer 2">
    <path id="Path_198755" data-name="Path 198755" d="M7.347,7.79A1.374,1.374,0,0,0,8.722,6.416V1.81a2.77,2.77,0,0,0-.451.429L3.742,7.449A3.8,3.8,0,0,0,3.5,7.79Z" transform="translate(-3.005 -1.194)" fill="#25cad2"/>
    <path id="Path_198756" data-name="Path 198756" d="M22.5,2.129a2.957,2.957,0,0,0-2.133-.879H10.415V6.472A3.023,3.023,0,0,1,7.392,9.495H3.05V21.862a3.023,3.023,0,0,0,3.023,3.023H20.364a3.023,3.023,0,0,0,3.023-3.023V4.273a3.012,3.012,0,0,0-.89-2.144ZM13.988,18.289h-4.4a.824.824,0,0,1,0-1.649h4.4a.824.824,0,1,1,0,1.649Zm4.4-4.4H9.591a.824.824,0,0,1,0-1.649h8.794a.824.824,0,0,1,0,1.649Z" transform="translate(-3.05 -1.25)" fill="#25cad2"/>
  </g>
  <rect id="Rectangle_30044" data-name="Rectangle 30044" width="14" height="11" transform="translate(3.168 8.817)" fill="#25cad2"/>
  <path id="Icon_awesome-question" data-name="Icon awesome-question" d="M5.246,0A3.784,3.784,0,0,0,1.884,1.778a.469.469,0,0,0,.1.642l.843.639a.469.469,0,0,0,.649-.081,1.9,1.9,0,0,1,1.616-.966c.6,0,1.344.387,1.344.969,0,.44-.364.667-.957,1-.692.388-1.607.871-1.607,2.078V6.25a.469.469,0,0,0,.469.469H5.758a.469.469,0,0,0,.469-.469V6.137C6.226,5.3,8.673,5.265,8.673,3,8.673,1.294,6.9,0,5.246,0Zm-.2,7.294A1.353,1.353,0,1,0,6.4,8.647,1.354,1.354,0,0,0,5.05,7.294Z" transform="translate(4.932 9.317)" fill="#fff"/>
</svg>
