<svg xmlns="http://www.w3.org/2000/svg" width="21.275" height="20.327" viewBox="0 0 21.275 20.327">
  <g id="Group_204376" data-name="Group 204376" transform="translate(150 201.486)">
    <g id="direction" transform="translate(-150 -201.486)">
      <path id="Path_198324" data-name="Path 198324" d="M217.02,17.645a.416.416,0,0,0-.042-.446l-2.759-3.619a.422.422,0,0,0-.336-.168.44.44,0,0,0-.341.168L210.785,17.2a.425.425,0,0,0,.341.682h.708v3.708a8.9,8.9,0,0,1,4.1,4.169V17.881h.708A.434.434,0,0,0,217.02,17.645Zm3.713,2.837a.425.425,0,0,0-.682.341v.708h-.2a7.978,7.978,0,0,0-3.063.608v4.772a3.609,3.609,0,0,1,2.759-1.285h.509v.708a.434.434,0,0,0,.236.383.416.416,0,0,0,.446-.042l3.619-2.759a.422.422,0,0,0,.168-.336.432.432,0,0,0-.168-.341Z" transform="translate(-203.243 -13.413)" fill="#25cad2"/>
      <path id="Path_198325" data-name="Path 198325" d="M.173,214.289l3.619,2.759a.417.417,0,0,0,.446.042.425.425,0,0,0,.236-.383V216h.509a3.611,3.611,0,0,1,3.608,3.608v4.085a.423.423,0,0,0,.425.425h3.246a.423.423,0,0,0,.425-.425v-3.776a8.017,8.017,0,0,0-8.008-8.008h-.21V211.2a.425.425,0,0,0-.682-.341L.168,213.618a.425.425,0,0,0-.168.341A.417.417,0,0,0,.173,214.289Z" transform="translate(0 -203.79)" fill="#25cad2"/>
    </g>
  </g>
</svg>
