<svg xmlns="http://www.w3.org/2000/svg" width="22.828" height="22.678" viewBox="0 0 22.828 22.678">
  <g id="Group_204204" data-name="Group 204204" transform="translate(-156.371 -247)">
    <g id="profile" transform="translate(164.314 248)">
      <g id="Group_203685" data-name="Group 203685">
        <g id="Path_198758" data-name="Path 198758" transform="translate(-4 -2)" fill="#25cad2">
          <path d="M 10.94277381896973 19.85693740844727 C 7.229665279388428 19.85693740844727 5.427410125732422 19.2974967956543 4.568338871002197 18.82586860656738 C 3.889257192611694 18.48328590393066 3.500003814697266 17.80606651306152 3.500003814697266 16.96601867675781 C 3.500003814697266 15.59001731872559 4.046313762664795 14.28874778747559 5.038303852081299 13.30189800262451 C 6.029573917388916 12.31577777862549 7.336243629455566 11.77269744873047 8.71761417388916 11.77269744873047 L 13.16793346405029 11.77269744873047 C 14.5584135055542 11.77270793914795 15.8643741607666 12.30318737030029 16.84526443481445 13.26643753051758 C 17.83852386474609 14.24183750152588 18.38554382324219 15.55571746826172 18.38554382324219 16.96601867675781 C 18.38023376464844 17.72674751281738 17.99139404296875 18.41468811035156 17.34539413452148 18.80975723266602 L 17.33598327636719 18.81550788879395 L 17.32634353637695 18.82083702087402 C 16.47093391418457 19.29350852966309 14.66907405853271 19.85693740844727 10.94277381896973 19.85693740844727 Z M 10.94277381896973 11.00142765045166 C 8.311253547668457 11.00142765045166 6.170363903045654 8.870267868041992 6.170363903045654 6.250717639923096 C 6.170363903045654 3.631157636642456 8.311253547668457 1.499997735023499 10.94277381896973 1.499997735023499 C 13.574294090271 1.499997735023499 15.71518421173096 3.631157636642456 15.71518421173096 6.250717639923096 C 15.71518421173096 8.870267868041992 13.574294090271 11.00142765045166 10.94277381896973 11.00142765045166 Z" stroke="none"/>
          <path d="M 10.94277381896973 1.999998092651367 C 8.582233428955078 1.999998092651367 6.670363426208496 3.903186798095703 6.670363426208496 6.250718116760254 C 6.670363426208496 8.598237991333008 8.582233428955078 10.50142765045166 10.94277381896973 10.50142765045166 C 13.30245399475098 10.50142765045166 15.21518325805664 8.598237991333008 15.21518325805664 6.250718116760254 C 15.21518325805664 3.903186798095703 13.30331420898438 1.999998092651367 10.94277381896973 1.999998092651367 M 8.71761417388916 12.27269744873047 C 6.13663387298584 12.27269744873047 4.000003814697266 14.39805793762207 4.000003814697266 16.96601867675781 C 4.000003814697266 17.58565711975098 4.267293930053711 18.11764717102051 4.801023483276367 18.38320732116699 C 5.602043151855469 18.8258171081543 7.381994247436523 19.35693740844727 10.94277381896973 19.35693740844727 C 14.50355339050293 19.35693740844727 16.28350448608398 18.8258171081543 17.08452415466309 18.38320732116699 C 17.57857322692871 18.08105850219727 17.88149452209473 17.54512786865234 17.88554382324219 16.96601867675781 C 17.88554382324219 14.30953788757324 15.74977397918701 12.27270793914795 13.16793346405029 12.27270793914795 L 8.71761417388916 12.27269744873047 M 10.94277381896973 0.9999980926513672 C 13.84999370574951 0.9999980926513672 16.21518325805664 3.355457305908203 16.21518325805664 6.250718116760254 C 16.21518325805664 8.612297058105469 14.64157867431641 10.61473751068115 12.48374938964844 11.27270603179932 L 13.16793346405029 11.27270793914795 C 14.69025421142578 11.27270793914795 16.12063407897949 11.8540678024292 17.19559478759766 12.90968799591064 C 18.28537368774414 13.97987747192383 18.88554382324219 15.42043781280518 18.88554382324219 16.96601867675781 L 18.88552474975586 16.97300720214844 C 18.87900352478027 17.9043083190918 18.40078353881836 18.75040817260742 17.60626411437988 19.23630714416504 L 17.56816482543945 19.25847816467285 C 16.66126441955566 19.75958824157715 14.77565383911133 20.35693740844727 10.94277381896973 20.35693740844727 C 7.134457588195801 20.35693740844727 5.248571395874023 19.76724052429199 4.334980010986328 19.26814460754395 C 3.498579025268555 18.84214019775391 3.000003814697266 17.98337173461914 3.000003814697266 16.96601867675781 C 3.000003814697266 15.45597839355469 3.598653793334961 14.02880764007568 4.685674667358398 12.94742774963379 C 5.771274566650391 11.86745738983154 7.203173637390137 11.27269744873047 8.71761417388916 11.27269744873047 L 9.401775360107422 11.2726993560791 C 7.243946075439453 10.61473083496094 5.670364379882812 8.612297058105469 5.670364379882812 6.250718116760254 C 5.670364379882812 3.355457305908203 8.035553932189941 0.9999980926513672 10.94277381896973 0.9999980926513672 Z" stroke="none" fill="#fff"/>
        </g>
      </g>
    </g>
    <g id="profile-2" data-name="profile" transform="translate(157.371 251.322)">
      <g id="Group_203685-2" data-name="Group 203685">
        <g id="Path_198758-2" data-name="Path 198758" transform="translate(-4 -2)" fill="#25cad2">
          <path d="M 10.94277381896973 19.85693740844727 C 7.229665279388428 19.85693740844727 5.427410125732422 19.2974967956543 4.568338871002197 18.82586860656738 C 3.889257192611694 18.48328590393066 3.500003814697266 17.80606651306152 3.500003814697266 16.96601867675781 C 3.500003814697266 15.59001731872559 4.046313762664795 14.28874778747559 5.038303852081299 13.30189800262451 C 6.029573917388916 12.31577777862549 7.336243629455566 11.77269744873047 8.71761417388916 11.77269744873047 L 13.16793346405029 11.77269744873047 C 14.5584135055542 11.77270793914795 15.8643741607666 12.30318737030029 16.84526443481445 13.26643753051758 C 17.83852386474609 14.24183750152588 18.38554382324219 15.55571746826172 18.38554382324219 16.96601867675781 C 18.38023376464844 17.72674751281738 17.99139404296875 18.41468811035156 17.34539413452148 18.80975723266602 L 17.33598327636719 18.81550788879395 L 17.32634353637695 18.82083702087402 C 16.47093391418457 19.29350852966309 14.66907405853271 19.85693740844727 10.94277381896973 19.85693740844727 Z M 10.94277381896973 11.00142765045166 C 8.311253547668457 11.00142765045166 6.170363903045654 8.870267868041992 6.170363903045654 6.250717639923096 C 6.170363903045654 3.631157636642456 8.311253547668457 1.499997735023499 10.94277381896973 1.499997735023499 C 13.574294090271 1.499997735023499 15.71518421173096 3.631157636642456 15.71518421173096 6.250717639923096 C 15.71518421173096 8.870267868041992 13.574294090271 11.00142765045166 10.94277381896973 11.00142765045166 Z" stroke="none"/>
          <path d="M 10.94277381896973 1.999998092651367 C 8.582233428955078 1.999998092651367 6.670363426208496 3.903186798095703 6.670363426208496 6.250718116760254 C 6.670363426208496 8.598237991333008 8.582233428955078 10.50142765045166 10.94277381896973 10.50142765045166 C 13.30245399475098 10.50142765045166 15.21518325805664 8.598237991333008 15.21518325805664 6.250718116760254 C 15.21518325805664 3.903186798095703 13.30331420898438 1.999998092651367 10.94277381896973 1.999998092651367 M 8.71761417388916 12.27269744873047 C 6.13663387298584 12.27269744873047 4.000003814697266 14.39805793762207 4.000003814697266 16.96601867675781 C 4.000003814697266 17.58565711975098 4.267293930053711 18.11764717102051 4.801023483276367 18.38320732116699 C 5.602043151855469 18.8258171081543 7.381994247436523 19.35693740844727 10.94277381896973 19.35693740844727 C 14.50355339050293 19.35693740844727 16.28350448608398 18.8258171081543 17.08452415466309 18.38320732116699 C 17.57857322692871 18.08105850219727 17.88149452209473 17.54512786865234 17.88554382324219 16.96601867675781 C 17.88554382324219 14.30953788757324 15.74977397918701 12.27270793914795 13.16793346405029 12.27270793914795 L 8.71761417388916 12.27269744873047 M 10.94277381896973 0.9999980926513672 C 13.84999370574951 0.9999980926513672 16.21518325805664 3.355457305908203 16.21518325805664 6.250718116760254 C 16.21518325805664 8.612297058105469 14.64157867431641 10.61473751068115 12.48374938964844 11.27270603179932 L 13.16793346405029 11.27270793914795 C 14.69025421142578 11.27270793914795 16.12063407897949 11.8540678024292 17.19559478759766 12.90968799591064 C 18.28537368774414 13.97987747192383 18.88554382324219 15.42043781280518 18.88554382324219 16.96601867675781 L 18.88552474975586 16.97300720214844 C 18.87900352478027 17.9043083190918 18.40078353881836 18.75040817260742 17.60626411437988 19.23630714416504 L 17.56816482543945 19.25847816467285 C 16.66126441955566 19.75958824157715 14.77565383911133 20.35693740844727 10.94277381896973 20.35693740844727 C 7.134457588195801 20.35693740844727 5.248571395874023 19.76724052429199 4.334980010986328 19.26814460754395 C 3.498579025268555 18.84214019775391 3.000003814697266 17.98337173461914 3.000003814697266 16.96601867675781 C 3.000003814697266 15.45597839355469 3.598653793334961 14.02880764007568 4.685674667358398 12.94742774963379 C 5.771274566650391 11.86745738983154 7.203173637390137 11.27269744873047 8.71761417388916 11.27269744873047 L 9.401775360107422 11.2726993560791 C 7.243946075439453 10.61473083496094 5.670364379882812 8.612297058105469 5.670364379882812 6.250718116760254 C 5.670364379882812 3.355457305908203 8.035553932189941 0.9999980926513672 10.94277381896973 0.9999980926513672 Z" stroke="none" fill="#fff"/>
        </g>
      </g>
    </g>
  </g>
</svg>
