<svg xmlns="http://www.w3.org/2000/svg" width="31.119" height="15.503" viewBox="0 0 31.119 15.503">
  <g id="Group_204380" data-name="Group 204380" transform="translate(-349.939 -942.248)">
    <g id="me" transform="translate(318.94 942.248)">
      <path id="Path_198288" data-name="Path 198288" d="M37.813,0A4.088,4.088,0,1,0,41.9,4.088,4.092,4.092,0,0,0,37.813,0ZM42.9,10.846a5.827,5.827,0,0,0-4.178-1.762H36.9a5.827,5.827,0,0,0-4.178,1.762A5.957,5.957,0,0,0,31,15.049a.454.454,0,0,0,.454.454H44.172a.454.454,0,0,0,.454-.454A5.957,5.957,0,0,0,42.9,10.846Z" fill="#25cad2"/>
    </g>
    <g id="me-2" data-name="me" transform="translate(336.434 942.248)">
      <path id="Path_198288-2" data-name="Path 198288" d="M37.813,0A4.088,4.088,0,1,0,41.9,4.088,4.092,4.092,0,0,0,37.813,0ZM42.9,10.846a5.827,5.827,0,0,0-4.178-1.762H36.9a5.827,5.827,0,0,0-4.178,1.762A5.957,5.957,0,0,0,31,15.049a.454.454,0,0,0,.454.454H44.172a.454.454,0,0,0,.454-.454A5.957,5.957,0,0,0,42.9,10.846Z" fill="#25cad2"/>
    </g>
    <path id="Icon_awesome-arrow-right" data-name="Icon awesome-arrow-right" d="M2.687,2.952l-.232-.232a.249.249,0,0,0-.354,0L.074,4.748a.249.249,0,0,0,0,.354L2.1,7.13a.249.249,0,0,0,.354,0L2.687,6.9a.251.251,0,0,0,0-.358l-1.257-1.2h3a.25.25,0,0,0,.25-.25V4.758a.25.25,0,0,0-.25-.25h-3l1.257-1.2A.249.249,0,0,0,2.687,2.952Z" transform="translate(362.76 945.075)" fill="#25cad2"/>
  </g>
</svg>
