<svg xmlns="http://www.w3.org/2000/svg" width="57" height="32" viewBox="0 0 57 32">
  <g id="Group_204393" data-name="Group 204393" transform="translate(-19399 -2799)">
    <rect id="Rectangle_29873" data-name="Rectangle 29873" width="57" height="32" rx="16" transform="translate(19399 2799)" fill="#fff"/>
    <g id="home" transform="translate(19415.5 2802.933)">
      <path id="Path_198249" data-name="Path 198249" d="M10.024,2.746a3.5,3.5,0,0,1,3.952,0l6.5,4.448A3.5,3.5,0,0,1,22,10.082V18.5A3.5,3.5,0,0,1,18.5,22H5.5A3.5,3.5,0,0,1,2,18.5V10.082A3.5,3.5,0,0,1,3.523,7.194ZM9.5,17.5a.5.5,0,0,0,0,1h5a.5.5,0,0,0,0-1Z" fill="#e3e3e3" fill-rule="evenodd"/>
    </g>
  </g>
</svg>
