<svg xmlns="http://www.w3.org/2000/svg" width="20" height="16" viewBox="0 0 20 16">
  <path id="Icon_awesome-id-card" data-name="Icon awesome-id-card" d="M18.333,2.25H1.667A1.691,1.691,0,0,0,0,3.964v.572H20V3.964A1.691,1.691,0,0,0,18.333,2.25ZM0,16.536A1.691,1.691,0,0,0,1.667,18.25H18.333A1.691,1.691,0,0,0,20,16.536V5.678H0ZM12.223,8.25a.283.283,0,0,1,.278-.286h5a.283.283,0,0,1,.278.286v.572a.283.283,0,0,1-.278.286h-5a.283.283,0,0,1-.278-.286Zm0,2.286a.283.283,0,0,1,.278-.286h5a.283.283,0,0,1,.278.286v.572a.283.283,0,0,1-.278.286h-5a.283.283,0,0,1-.278-.286Zm0,2.286a.283.283,0,0,1,.278-.286h5a.283.283,0,0,1,.278.286v.572a.283.283,0,0,1-.278.286h-5a.283.283,0,0,1-.278-.286ZM6.111,7.966a2.287,2.287,0,0,1,0,4.572,2.287,2.287,0,0,1,0-4.573ZM2.33,15.258A2.232,2.232,0,0,1,4.445,13.68h.285a3.485,3.485,0,0,0,2.764,0h.285a2.232,2.232,0,0,1,2.115,1.578.575.575,0,0,1-.1.494.541.541,0,0,1-.444.214H2.872a.542.542,0,0,1-.443-.215.576.576,0,0,1-.1-.494Z" transform="translate(0 -2.25)" fill="#25cad2"/>
</svg>
