<svg xmlns="http://www.w3.org/2000/svg" width="19.625" height="19.625" viewBox="0 0 19.625 19.625">
  <path id="Icon_ionic-ios-close-circle" data-name="Icon ionic-ios-close-circle" d="M13.188,3.375A9.813,9.813,0,1,0,23,13.188,9.811,9.811,0,0,0,13.188,3.375ZM15.674,16.74l-2.486-2.486L10.7,16.74a.754.754,0,1,1-1.066-1.066l2.486-2.486L9.635,10.7A.754.754,0,0,1,10.7,9.635l2.486,2.486,2.486-2.486A.754.754,0,0,1,16.74,10.7l-2.486,2.486,2.486,2.486a.757.757,0,0,1,0,1.066A.749.749,0,0,1,15.674,16.74Z" transform="translate(-3.375 -3.375)" fill="#e3e3e3"/>
</svg>
