<svg xmlns="http://www.w3.org/2000/svg" width="25.051" height="25.05" viewBox="0 0 25.051 25.05">
  <path id="Icon_ionic-logo-whatsapp" data-name="Icon ionic-logo-whatsapp" d="M15,2.25a12.25,12.25,0,0,0-12.3,12.2,12.076,12.076,0,0,0,1.765,6.3L2.25,27.3l6.808-2.163A12.318,12.318,0,0,0,27.3,14.453,12.25,12.25,0,0,0,15,2.25Zm6.115,16.837a3.176,3.176,0,0,1-2.175,1.4c-.577.031-.593.447-3.737-.919a12.831,12.831,0,0,1-5.184-4.9A6.031,6.031,0,0,1,8.86,11.4a3.485,3.485,0,0,1,1.2-2.557,1.2,1.2,0,0,1,.852-.359c.248,0,.408-.007.591,0s.458-.038.7.595.808,2.189.88,2.348a.57.57,0,0,1,.006.546,2.136,2.136,0,0,1-.333.508c-.164.176-.345.394-.492.528-.163.149-.334.312-.162.63A9.41,9.41,0,0,0,13.76,15.86,8.58,8.58,0,0,0,16.226,17.5c.308.168.492.149.684-.052s.819-.88,1.04-1.184.428-.245.712-.13,1.8.926,2.106,1.093.514.253.588.386A2.582,2.582,0,0,1,21.117,19.087Z" transform="translate(-2.25 -2.25)" fill="#60bb3f"/>
</svg>
