<svg xmlns="http://www.w3.org/2000/svg" width="57" height="32" viewBox="0 0 57 32">
  <g id="Group_204526" data-name="Group 204526" transform="translate(-2954 -2886)">
    <rect id="Rectangle_29873" data-name="Rectangle 29873" width="57" height="32" rx="16" transform="translate(2954 2886)" fill="#28d4dc"/>
    <g id="me" transform="translate(2942.506 2891.767)">
      <path id="Path_198288" data-name="Path 198288" d="M39.994,0a5.4,5.4,0,1,0,5.4,5.4A5.4,5.4,0,0,0,39.994,0Zm6.714,14.318a7.693,7.693,0,0,0-5.515-2.326h-2.4a7.693,7.693,0,0,0-5.515,2.326A7.865,7.865,0,0,0,31,19.867a.6.6,0,0,0,.6.6H48.389a.6.6,0,0,0,.6-.6A7.865,7.865,0,0,0,46.708,14.318Z" fill="#d3f5f6"/>
    </g>
  </g>
</svg>
