<svg xmlns="http://www.w3.org/2000/svg" width="63" height="63" viewBox="0 0 63 63">
  <g id="Group_204545" data-name="Group 204545" transform="translate(-331 -265)">
    <circle id="Ellipse_3461" data-name="Ellipse 3461" cx="31.5" cy="31.5" r="31.5" transform="translate(331 265)" fill="#d3f5f6"/>
    <g id="notes" transform="translate(347.288 281.425)">
      <g id="Group_203574" data-name="Group 203574" transform="translate(1.986 2.501)">
        <path id="Path_198289" data-name="Path 198289" d="M26.413,13.008l-1.3,5.532c-1.112,4.778-3.309,6.71-7.438,6.313a13.915,13.915,0,0,1-2.144-.357l-2.223-.529C7.791,22.657,6.084,19.93,7.381,14.4l1.3-5.545a13.863,13.863,0,0,1,.979-2.912c1.549-3.2,4.182-4.063,8.6-3.018l2.21.516C26.016,4.736,27.71,7.476,26.413,13.008Z" transform="translate(-0.374 -2.501)" fill="#fff"/>
        <g id="Group_203575" data-name="Group 203575">
          <path id="Path_198290" data-name="Path 198290" d="M19.29,24.013a12.4,12.4,0,0,1-3.11,1.429l-2.091.688c-5.254,1.694-8.02.278-9.728-4.976L2.666,15.926C.972,10.672,2.375,7.893,7.629,6.2L9.721,5.51a13.531,13.531,0,0,1,1.549-.41,13.863,13.863,0,0,0-.979,2.912l-1.3,5.545c-1.3,5.532.41,8.259,5.929,9.569l2.223.529A13.915,13.915,0,0,0,19.29,24.013ZM22.506,12.26a1.808,1.808,0,0,1-.251-.026l-6.419-1.628a.993.993,0,0,1,.49-1.919l6.419,1.628a.99.99,0,0,1-.238,1.946Z" transform="translate(-1.986 -1.661)" fill="#25cad2"/>
          <path id="Path_198291" data-name="Path 198291" d="M15.73,14.609a1.808,1.808,0,0,1-.251-.026L11.627,13.6a.993.993,0,0,1,.49-1.919l3.851.979a.992.992,0,0,1,.715,1.2A.964.964,0,0,1,15.73,14.609Z" transform="translate(0.912 0.464)" fill="#25cad2"/>
        </g>
      </g>
    </g>
  </g>
</svg>
