<svg id="loc" xmlns="http://www.w3.org/2000/svg" width="20.701" height="20.701" viewBox="0 0 20.701 20.701">
  <path id="Path_198292" data-name="Path 198292" d="M20.094,9.744h-.806a8.958,8.958,0,0,0-8.331-8.331V.606a.606.606,0,0,0-1.213,0v.806A8.958,8.958,0,0,0,1.413,9.744H.606a.606.606,0,0,0,0,1.213h.806a8.958,8.958,0,0,0,8.331,8.331v.806a.606.606,0,0,0,1.213,0v-.806a8.958,8.958,0,0,0,8.331-8.331h.806a.606.606,0,0,0,0-1.213Zm-9.137,8.328V17.31a.606.606,0,1,0-1.213,0v.762a7.758,7.758,0,0,1-7.115-7.115H3.39a.606.606,0,0,0,0-1.213H2.629A7.758,7.758,0,0,1,9.744,2.629V3.39a.606.606,0,0,0,1.213,0V2.629a7.758,7.758,0,0,1,7.115,7.115H17.31a.606.606,0,1,0,0,1.213h.762A7.758,7.758,0,0,1,10.957,18.072Z" fill="#25cad2"/>
  <circle id="Ellipse_3462" data-name="Ellipse 3462" cx="3.019" cy="3.019" r="3.019" transform="translate(7.331 7.331)" fill="#25cad2"/>
</svg>
