<svg xmlns="http://www.w3.org/2000/svg" width="12.082" height="14.097" viewBox="0 0 12.082 14.097">
  <g id="Location" transform="translate(1 1)">
    <g id="Path_32746" data-name="Path 32746" transform="translate(-4.5 -3)" fill="#e3e3e3" stroke-linecap="round" stroke-linejoin="round" fill-rule="evenodd">
      <path d="M 9.540186882019043 15.59726333618164 C 8.421537399291992 15.59726333618164 7.025227546691895 14.70218372344971 5.896157264709473 13.26131343841553 C 4.691117286682129 11.72350311279297 3.99999737739563 9.844753265380859 3.99999737739563 8.106793403625488 C 3.99999737739563 5.015203475952148 6.485317230224609 2.500003576278687 9.540186882019043 2.500003576278687 C 12.59543704986572 2.500003576278687 15.08105754852295 5.015203475952148 15.08105754852295 8.106793403625488 C 15.08105754852295 9.844813346862793 14.38989734649658 11.7235631942749 13.1847972869873 13.26132392883301 C 12.05563735961914 14.70218372344971 10.65910720825195 15.59726333618164 9.540186882019043 15.59726333618164 Z" stroke="none"/>
      <path d="M 9.540186882019043 15.09726333618164 C 11.48852729797363 15.09726333618164 14.58105754852295 11.709153175354 14.58105754852295 8.106793403625488 C 14.58105754852295 5.286693572998047 12.32417774200439 3.000003576278687 9.540186882019043 3.000003576278687 C 6.756207466125488 3.000003576278687 4.499997138977051 5.286693572998047 4.499997138977051 8.106793403625488 C 4.499997138977051 11.709153175354 7.592517375946045 15.09726333618164 9.540186882019043 15.09726333618164 M 9.540186882019043 16.09726333618164 C 8.252167701721191 16.09726333618164 6.74278736114502 15.15238380432129 5.50258731842041 13.56970310211182 C 4.229917526245117 11.9455738067627 3.49999737739563 9.954423904418945 3.49999737739563 8.106793403625488 C 3.49999737739563 4.739493370056152 6.209617137908936 2.000003576278687 9.540186882019043 2.000003576278687 C 12.87113761901855 2.000003576278687 15.58105754852295 4.739493370056152 15.58105754852295 8.106793403625488 C 15.58105754852295 9.954483985900879 14.85109710693359 11.94565391540527 13.57834720611572 13.56974315643311 C 12.33806705474854 15.15239334106445 10.82847690582275 16.09726333618164 9.540186882019043 16.09726333618164 Z" stroke="none" fill="#fff"/>
    </g>
    <g id="Path_32745" data-name="Path 32745" transform="translate(-6.143 -4.709)" fill="#e3e3e3" stroke-linecap="round" stroke-linejoin="round" fill-rule="evenodd">
      <path d="M 11.19005298614502 12.07033920288086 C 9.988102912902832 12.07033920288086 9.010252952575684 11.09246921539307 9.010252952575684 9.890499114990234 C 9.010252952575684 8.688149452209473 9.988102912902832 7.709959030151367 11.19005298614502 7.709959030151367 C 12.39243316650391 7.709959030151367 13.37063312530518 8.688149452209473 13.37063312530518 9.890499114990234 C 13.37063312530518 11.09246921539307 12.39243316650391 12.07033920288086 11.19005298614502 12.07033920288086 Z" stroke="none"/>
      <path d="M 11.19005298614502 11.57033920288086 C 12.11838340759277 11.57033920288086 12.87063312530518 10.81808948516846 12.87063312530518 9.890499114990234 C 12.87063312530518 8.96216869354248 12.11838340759277 8.209959030151367 11.19005298614502 8.209959030151367 C 10.2624626159668 8.209959030151367 9.510252952575684 8.96216869354248 9.510252952575684 9.890499114990234 C 9.510252952575684 10.81808948516846 10.2624626159668 11.57033920288086 11.19005298614502 11.57033920288086 M 11.19005298614502 12.57033920288086 C 9.712403297424316 12.57033920288086 8.510252952575684 11.36816883087158 8.510252952575684 9.890499114990234 C 8.510252952575684 8.412448883056641 9.712403297424316 7.209959030151367 11.19005298614502 7.209959030151367 C 12.66813278198242 7.209959030151367 13.87063312530518 8.412448883056641 13.87063312530518 9.890499114990234 C 13.87063312530518 11.36816883087158 12.66813278198242 12.57033920288086 11.19005298614502 12.57033920288086 Z" stroke="none" fill="#fff"/>
    </g>
  </g>
</svg>
