<svg xmlns="http://www.w3.org/2000/svg" width="57" height="32" viewBox="0 0 57 32">
  <g id="Group_204389" data-name="Group 204389" transform="translate(-19083 -2799)">
    <rect id="Rectangle_29873" data-name="Rectangle 29873" width="57" height="32" rx="16" transform="translate(19083 2799)" fill="#d3f5f6"/>
    <g id="more" transform="translate(19097.26 2800.759)">
      <path id="Path_198252" data-name="Path 198252" d="M10.4,12.961H6.56A2.56,2.56,0,0,1,4,10.4V6.56A2.56,2.56,0,0,1,6.56,4H10.4a2.56,2.56,0,0,1,2.56,2.56V10.4A2.56,2.56,0,0,1,10.4,12.961Zm9.6,0a4.48,4.48,0,1,1,4.48-4.48A4.48,4.48,0,0,1,20,12.961Zm1.92,11.521h-3.84a2.56,2.56,0,0,1-2.56-2.56v-3.84a2.56,2.56,0,0,1,2.56-2.56h3.84a2.56,2.56,0,0,1,2.56,2.56v3.84A2.56,2.56,0,0,1,21.922,24.482Zm-11.521,0H6.56A2.56,2.56,0,0,1,4,21.922v-3.84a2.56,2.56,0,0,1,2.56-2.56H10.4a2.56,2.56,0,0,1,2.56,2.56v3.84A2.56,2.56,0,0,1,10.4,24.482Z" fill="#25cad2"/>
    </g>
  </g>
</svg>
