<svg xmlns="http://www.w3.org/2000/svg" width="25.156" height="32.279" viewBox="0 0 25.156 32.279">
  <g id="on_map" data-name="on map" transform="translate(-4.928)">
    <path id="Path_198237" data-name="Path 198237" d="M30.064,11.849A12.594,12.594,0,0,0,17.492,0c-.237,0-.474.007-.713.02A12.578,12.578,0,0,0,12.243,24l.1.046.075.08a70.323,70.323,0,0,1,5.266,6.77l.936,1.384.8-1.446c.662-1.18,2.817-5,4.283-7.246l.069-.106.109-.066a12.7,12.7,0,0,0,6.182-11.566Zm-17.425-8.3.1.237L12,3.756l-.03-.15c.044-.027.092-.048.134-.075l.536.015Zm9.934,18.276-.218.121-.14.206c-1.089,1.629-2.572,4.18-3.359,5.555l-.415.724-.493-.675A59.283,59.283,0,0,0,13.686,22.5l-.145-.155-.194-.082A10.511,10.511,0,0,1,7.491,9.316v.331l.439.748.357.054.046-.256-.421-.648L7.83,8.914h.247l.1.648.607.888-.157.286.387.591.96.238V11.41l.384.055-.037.273.3.056.466.127.659.75.84.064.083.686-.576.4-.028.614-.082.374.833,1.042.064.356s.3.082.339.082.677.486.677.486v1.884l.228.064-.157.868.384.512-.071.861.508.891.651.569.656.012.064-.21-.481-.405.028-.2.086-.247.018-.253-.326-.009-.164-.206.271-.26.037-.2-.3-.086.017-.182.431-.066.653-.314.22-.4.686-.879-.157-.687.212-.366.631.019.425-.337.137-1.325.471-.6.082-.384-.429-.138-.284-.465-.97-.009-.768-.293-.037-.549-.257-.447-.695-.01-.4-.63-.357-.174-.017.192-.649.039-.239-.332-.677-.137-.557.646-.878-.149-.065-.99-.64-.108.257-.486-.075-.279-.841.562-.529-.064-.189-.413.116-.426.292-.538L10.92,9.3h1.3l0,.4.466.218-.037-.677L12.98,8.9l.679-.445.046-.314.677-.7.72-.4-.064-.052.487-.459.179.05.08.1.186-.205.046-.02-.2-.027-.206-.069v-.2l.11-.088h.24l.11.048.1.192.116-.017V6.277l.034.011.338-.051.048-.165.192.048V6.3l-.179.124h0l.025.2.611.189a.018.018,0,0,1,0,.007L17.49,6.8l.01-.265-.484-.22-.027-.127.4-.137.017-.385-.419-.256-.028-.649-.576.283h-.21l.055-.494-.785-.185-.325.245v.748l-.583.184L14.3,6.03l-.254.042V5.448L13.5,5.373l-.274-.179-.111-.4.981-.574.48-.147.049.322.267-.014.021-.162.28-.04.006-.057-.118-.048L15.055,3.9,15.4,3.87l.209-.217.01-.015h0l.064-.065.723-.091.319.272-.837.446,1.066.251.138-.356h.466l.166-.312L17.4,3.7V3.309l-1.034-.458-.714.082-.4.211.028.511-.421-.063-.065-.284.4-.366-.731-.037-.21.064-.092.246.274.046-.053.275-.467.027-.074.183-.677.018a1.831,1.831,0,0,0-.046-.384l.529-.009.4-.393-.22-.11-.292.284-.486-.028L13,3.052A10.471,10.471,0,0,1,24.037,4.316l-.251.1-.215.232.049.271.26.037.161.395.45-.182.075.528h-.136l-.372-.056-.41.069-.4.562-.569.09-.083.487.241.056-.069.314L22.205,7.1l-.518.113-.11.288.089.6.305.142.511,0,.345-.032.106-.275.539-.7.354.073L24.173,7l.065.247.859.58-.106.14-.388-.02.15.211.239.052.28-.117-.007-.336.125-.061-.1-.106-.573-.319-.149-.424h.476L25.2,7l.411.353.016.428.425.452.16-.62.295-.16.054.507.288.316.271-.005c.136.3.256.609.364.923h-.7l-.535-.4-.562.055v.343H25.5l-.191-.136-.977-.247V8.177l-1.233.1-.384.205h-.491l-.241-.024-.593.33v.622l-1.217.877.1.375h.247l-.064.357-.173.064-.01.933,1.052,1.2h.458l.028-.074h.823l.237-.22h.466l.257.256.695.073-.092.924.772,1.363-.407.776.028.367.32.319v.88l.419.566v.731h.363c-.066.079-.139.15-.206.226h.04a10.432,10.432,0,0,1-2.954,2.422Z" fill="#fff"/>
    <path id="Path_198238" data-name="Path 198238" d="M29.275,7.461l.023.179-.266.054L29,8.074h.32l.425-.041.22-.262-.234-.09L29.6,7.534l-.192-.31-.092-.44-.361.074-.1.155v.174l.175.119Z" transform="translate(-6.632 -1.88)" fill="#fff"/>
    <path id="Path_198239" data-name="Path 198239" d="M26.361,7.8l.018-.238-.21-.091-.3.068-.22.352v.228h.256ZM20.269,8.806l-.066.168h-.315v.163h.075s.006.035.012.08l.194-.016.12-.074.033-.152.157-.014.061-.128L20.4,8.8Zm-.813.3-.013.159.231-.018.022-.16-.137-.108Z" transform="translate(-4.024 -2.07)" fill="#fff"/>
  </g>
</svg>
