<svg xmlns="http://www.w3.org/2000/svg" width="21.305" height="17.729" viewBox="0 0 21.305 17.729">
  <path id="Path_200491" data-name="Path 200491" d="M324.306,718.289a.924.924,0,0,0-.8-.916l-.126-.007H307.158l5.862-5.837a.923.923,0,0,0-1.2-1.4l-.1.09-7.445,7.413a.856.856,0,0,0-.124.153l-.03.05c-.009.015-.017.029-.025.044s-.021.046-.03.069-.014.036-.02.054-.014.045-.02.069-.007.032-.01.049-.007.048-.01.073,0,.038,0,.058v.071l0,.054,0-.09a.864.864,0,0,0,.016.17c0,.014,0,.027.009.041s.014.054.022.081.01.026.015.041.022.054.036.08.012.025.02.037a.678.678,0,0,0,.036.059.419.419,0,0,0,.03.041l.007.011a.837.837,0,0,0,.081.092h0l7.445,7.415a.923.923,0,0,0,1.392-1.2l-.09-.1-5.859-5.837h16.222A.923.923,0,0,0,324.306,718.289Z" transform="translate(-303.5 -709.396)" fill="#25cad2" stroke="#25cad2" stroke-width="1"/>
</svg>
