<svg id="profile" xmlns="http://www.w3.org/2000/svg" width="19.199" height="24" viewBox="0 0 19.199 24">
  <g id="Group_203685" data-name="Group 203685">
    <path id="Path_198758" data-name="Path 198758" d="M13.6,13.755A5.878,5.878,0,1,0,7.692,7.878,5.893,5.893,0,0,0,13.6,13.755ZM16.677,16.2H10.523A6.55,6.55,0,0,0,4,22.694a2.077,2.077,0,0,0,1.108,1.96C6.215,25.266,8.676,26,13.6,26s7.385-.734,8.492-1.346a2.316,2.316,0,0,0,1.108-1.96,6.47,6.47,0,0,0-6.523-6.49Z" transform="translate(-4 -2)" fill="#25cad2"/>
  </g>
</svg>
