<svg id="scan" xmlns="http://www.w3.org/2000/svg" width="28.699" height="28.7" viewBox="0 0 28.699 28.7">
  <path id="Path_198310" data-name="Path 198310" d="M27.5,9.567a1.2,1.2,0,0,1-1.2-1.2V3.588a1.2,1.2,0,0,0-1.2-1.2H20.329a1.2,1.2,0,0,1,0-2.392h4.783A3.592,3.592,0,0,1,28.7,3.588V8.371A1.2,1.2,0,0,1,27.5,9.567ZM25.113,28.7H20.329a1.2,1.2,0,0,1,0-2.392h4.783a1.2,1.2,0,0,0,1.2-1.2V20.329a1.2,1.2,0,0,1,2.392,0v4.783A3.592,3.592,0,0,1,25.113,28.7Zm-16.742,0H3.588A3.592,3.592,0,0,1,0,25.113V20.329a1.2,1.2,0,0,1,2.392,0v4.783a1.2,1.2,0,0,0,1.2,1.2H8.371a1.2,1.2,0,1,1,0,2.392ZM1.2,9.567A1.2,1.2,0,0,1,0,8.371V3.588A3.592,3.592,0,0,1,3.588,0H8.371a1.2,1.2,0,1,1,0,2.392H3.588a1.2,1.2,0,0,0-1.2,1.2V8.371a1.2,1.2,0,0,1-1.2,1.2Zm20.329,3.588a1.2,1.2,0,0,1-1.2-1.2V8.371H8.371v3.588a1.2,1.2,0,1,1-2.392,0V8.371A2.394,2.394,0,0,1,8.371,5.979H20.329a2.394,2.394,0,0,1,2.392,2.392v3.588A1.2,1.2,0,0,1,21.525,13.154Zm3.588,3.588a1.2,1.2,0,0,1-1.2,1.2h-1.2v2.392a2.394,2.394,0,0,1-2.392,2.392H8.371a2.394,2.394,0,0,1-2.392-2.392V17.938h-1.2a1.2,1.2,0,0,1,0-2.392H23.917A1.2,1.2,0,0,1,25.113,16.742Z" fill="#f4b73b"/>
</svg>
