<svg id="settings" xmlns="http://www.w3.org/2000/svg" width="21.992" height="23.635" viewBox="0 0 21.992 23.635">
  <path id="Path_198759" data-name="Path 198759" d="M23.7,15.536l-.444-.257a1.688,1.688,0,0,1,0-2.924L23.7,12.1a2.531,2.531,0,0,0,.927-3.459l-.844-1.462a2.535,2.535,0,0,0-3.459-.927l-.444.256a1.688,1.688,0,0,1-2.532-1.462V4.532A2.535,2.535,0,0,0,14.813,2H13.125a2.535,2.535,0,0,0-2.532,2.532v.513A1.688,1.688,0,0,1,8.06,6.507l-.444-.257a2.537,2.537,0,0,0-3.46.927L3.312,8.64A2.531,2.531,0,0,0,4.239,12.1l.445.257a1.688,1.688,0,0,1,0,2.924l-.444.257A2.531,2.531,0,0,0,3.313,19l.844,1.462a2.536,2.536,0,0,0,3.459.927l.444-.256a1.688,1.688,0,0,1,2.532,1.462V23.1a2.535,2.535,0,0,0,2.532,2.532h1.688A2.535,2.535,0,0,0,17.345,23.1v-.513a1.688,1.688,0,0,1,2.532-1.462l.444.257a2.537,2.537,0,0,0,3.459-.927L24.625,19a2.531,2.531,0,0,0-.927-3.459Zm-9.729,2.5a4.22,4.22,0,1,1,4.22-4.22A4.225,4.225,0,0,1,13.969,18.038Z" transform="translate(-2.972 -2)" fill="#25cad2"/>
</svg>
