<svg id="share" xmlns="http://www.w3.org/2000/svg" width="21.666" height="23.635" viewBox="0 0 21.666 23.635">
  <path id="Path_198760" data-name="Path 198760" d="M321.069,19.2a3.2,3.2,0,1,1-3.2-3.2A3.2,3.2,0,0,1,321.069,19.2Zm0,0" transform="translate(-300.142 -15.261)" fill="#25cad2"/>
  <path id="Path_198761" data-name="Path 198761" d="M302.607,7.878a3.939,3.939,0,1,1,3.939-3.939A3.943,3.943,0,0,1,302.607,7.878Zm0-6.4a2.462,2.462,0,1,0,2.462,2.462A2.465,2.465,0,0,0,302.607,1.477Zm3.2,18.219a3.2,3.2,0,1,1-3.2-3.2A3.2,3.2,0,0,1,305.808,19.7Zm0,0" transform="translate(-284.881)" fill="#25cad2"/>
  <path id="Path_198762" data-name="Path 198762" d="M32.987,201.686a3.939,3.939,0,1,1,3.939-3.939A3.943,3.943,0,0,1,32.987,201.686Zm0-6.4a2.462,2.462,0,1,0,2.462,2.462A2.465,2.465,0,0,0,32.987,195.285ZM22.4,189.868a3.2,3.2,0,1,1-3.2-3.2A3.2,3.2,0,0,1,22.4,189.868Zm0,0" transform="translate(-15.261 -178.051)" fill="#25cad2"/>
  <path id="Path_198763" data-name="Path 198763" d="M3.939,178.546a3.939,3.939,0,1,1,3.939-3.939A3.943,3.943,0,0,1,3.939,178.546Zm0-6.4A2.462,2.462,0,1,0,6.4,174.607,2.465,2.465,0,0,0,3.939,172.145Zm0,0" transform="translate(0 -162.79)" fill="#25cad2"/>
  <path id="Path_198764" data-name="Path 198764" d="M115.334,97.395a.985.985,0,0,1-.488-1.841l9.138-5.209a.985.985,0,1,1,.975,1.712l-9.138,5.209A.978.978,0,0,1,115.334,97.395Zm9.137,8.124a.979.979,0,0,1-.487-.129l-9.138-5.209a.985.985,0,0,1,.975-1.712l9.138,5.209a.985.985,0,0,1-.488,1.841Zm0,0" transform="translate(-109.07 -86.05)" fill="#25cad2"/>
</svg>
