<svg xmlns="http://www.w3.org/2000/svg" width="28.396" height="22.694" viewBox="0 0 28.396 22.694">
  <g id="speaker" transform="translate(-1.25 -3.408)">
    <g id="Group_203584" data-name="Group 203584" transform="translate(1.25 3.408)">
      <path id="Path_198301" data-name="Path 198301" d="M28.657,15.747H23.374a.991.991,0,1,1,0-1.981h5.283a.991.991,0,0,1,0,1.981ZM18.117,3.9c-1.479-.819-3.368-.608-5.3.594L8.964,6.911a1.711,1.711,0,0,1-.872.251H6.2c-3.2,0-4.953,1.757-4.953,4.953V17.4c0,3.2,1.757,4.953,4.953,4.953H8.092a1.711,1.711,0,0,1,.872.251l3.857,2.417A6.383,6.383,0,0,0,16.175,26.1a3.962,3.962,0,0,0,1.942-.489c1.466-.819,2.285-2.523,2.285-4.795V8.694C20.4,6.422,19.583,4.718,18.117,3.9Z" transform="translate(-1.25 -3.408)" fill="#fff"/>
    </g>
  </g>
</svg>
