<svg xmlns="http://www.w3.org/2000/svg" width="57" height="32" viewBox="0 0 57 32">
  <g id="Group_204395" data-name="Group 204395" transform="translate(-19114.76 -2263.824)">
    <rect id="Rectangle_29873" data-name="Rectangle 29873" width="57" height="32" rx="16" transform="translate(19114.76 2263.824)" fill="#d3f5f6"/>
    <g id="support" transform="translate(19125.469 2257.324)">
      <g id="Group_203547" data-name="Group 203547" transform="translate(5.232 12.113)">
        <path id="Path_198250" data-name="Path 198250" d="M18.115,12.119a9.882,9.882,0,0,0-9.822,7.118,1.6,1.6,0,0,0-.637.059A3.257,3.257,0,0,0,5.7,21a5.763,5.763,0,0,0-.4,3.239,4.933,4.933,0,0,0,1.318,2.793,2.219,2.219,0,0,0,2.059.662c1.058-.226,1.583-.395,1.434-1.38L9.4,21.535a8.405,8.405,0,0,1,16.784.011l-.5,3.342a8.4,8.4,0,0,1-7.1,5.483H16.444a.993.993,0,0,0-1,.995v.525a.993.993,0,0,0,1,1h2.694a.992.992,0,0,0,.993-.995v-.275a9.919,9.919,0,0,0,5.907-4.152l.863.229a2.146,2.146,0,0,0,2.059-.662,4.936,4.936,0,0,0,1.318-2.793A5.8,5.8,0,0,0,29.88,21a2.814,2.814,0,0,0-1.711-1.64,3.646,3.646,0,0,0-.883-.123,9.88,9.88,0,0,0-9.171-7.118Z" transform="translate(-5.232 -12.113)" fill="#28d4dc" fill-rule="evenodd"/>
        <path id="Path_198251" data-name="Path 198251" d="M33.663,27.333a1.291,1.291,0,1,1-1.293,1.291,1.292,1.292,0,0,1,1.293-1.291Zm-3.477,0a1.29,1.29,0,1,1-.914.378,1.291,1.291,0,0,1,.914-.378Zm-3.476,0a1.291,1.291,0,1,1-1.291,1.291,1.291,1.291,0,0,1,1.291-1.291Zm3.476-5.547A6.869,6.869,0,0,0,25.2,33.351L24.8,35.18c-.135.6.283,1.007.824.706l1.786-1a6.959,6.959,0,0,0,2.78.573,6.838,6.838,0,0,0,0-13.676Z" transform="translate(-17.627 -18.731)" fill="#28d4dc" fill-rule="evenodd"/>
      </g>
    </g>
  </g>
</svg>
