<svg xmlns="http://www.w3.org/2000/svg" width="20.304" height="16.791" viewBox="0 0 20.304 16.791">
  <g id="support" transform="translate(-5.232 -12.113)">
    <g id="Group_203547" data-name="Group 203547" transform="translate(5.232 12.113)">
      <path id="Path_198250" data-name="Path 198250" d="M15.646,12.118a7.988,7.988,0,0,0-7.939,5.754,1.3,1.3,0,0,0-.515.047A2.633,2.633,0,0,0,5.614,19.3a4.658,4.658,0,0,0-.324,2.618,3.987,3.987,0,0,0,1.065,2.257,1.793,1.793,0,0,0,1.665.535c.855-.183,1.279-.319,1.16-1.116L8.6,19.729a6.794,6.794,0,0,1,13.567.009l-.405,2.7a6.788,6.788,0,0,1-5.74,4.432H14.3a.8.8,0,0,0-.8.8V28.1a.8.8,0,0,0,.8.8h2.178a.8.8,0,0,0,.8-.8v-.222a8.018,8.018,0,0,0,4.775-3.356l.7.185a1.735,1.735,0,0,0,1.665-.535,3.989,3.989,0,0,0,1.065-2.257,4.689,4.689,0,0,0-.323-2.618,2.275,2.275,0,0,0-1.383-1.325,2.947,2.947,0,0,0-.714-.1,7.986,7.986,0,0,0-7.413-5.754Z" transform="translate(-5.232 -12.113)" fill="#25cad2" fill-rule="evenodd"/>
      <path id="Path_198251" data-name="Path 198251" d="M31.686,26.27a1.044,1.044,0,1,1-1.045,1.043,1.045,1.045,0,0,1,1.045-1.043Zm-2.811,0a1.043,1.043,0,1,1-.739.305,1.044,1.044,0,0,1,.739-.305Zm-2.81,0a1.044,1.044,0,1,1-1.044,1.043,1.044,1.044,0,0,1,1.044-1.043Zm2.81-4.484a5.552,5.552,0,0,0-4.027,9.348l-.33,1.479c-.109.487.229.814.666.57l1.444-.805a5.625,5.625,0,0,0,2.247.463,5.527,5.527,0,0,0,0-11.054Z" transform="translate(-18.723 -19.317)" fill="#25cad2" fill-rule="evenodd"/>
    </g>
  </g>
</svg>
