<svg id="video_1_" data-name="video (1)" xmlns="http://www.w3.org/2000/svg" width="27.898" height="16.391" viewBox="0 0 27.898 16.391">
  <path id="Path_198305" data-name="Path 198305" d="M15.781,96.512H3.052A3.061,3.061,0,0,0,0,99.564v10.286A3.061,3.061,0,0,0,3.052,112.9H15.781a3.061,3.061,0,0,0,3.052-3.052V99.564A3.042,3.042,0,0,0,15.781,96.512Zm9.859,1.679a1.554,1.554,0,0,0-.519.214l-4.762,2.747v7.081l4.792,2.747a1.815,1.815,0,0,0,2.5-.672,1.865,1.865,0,0,0,.244-.916V99.961A1.837,1.837,0,0,0,25.64,98.191Z" transform="translate(0 -96.512)" fill="#a8a8a8"/>
</svg>
