<svg id="video_1_" data-name="video (1)" xmlns="http://www.w3.org/2000/svg" width="17.559" height="10.316" viewBox="0 0 17.559 10.316">
  <path id="Path_198305" data-name="Path 198305" d="M9.932,96.512H1.921A1.927,1.927,0,0,0,0,98.433v6.474a1.927,1.927,0,0,0,1.921,1.921H9.932a1.927,1.927,0,0,0,1.921-1.921V98.433A1.914,1.914,0,0,0,9.932,96.512Zm6.2,1.057a.978.978,0,0,0-.327.134l-3,1.729v4.457l3.016,1.729a1.142,1.142,0,0,0,1.575-.423,1.174,1.174,0,0,0,.154-.576V98.683A1.156,1.156,0,0,0,16.136,97.569Z" transform="translate(0 -96.512)" fill="#25cad2"/>
</svg>
